<?xml version="1.0" encoding="utf-8"?>
<!-- Generator: Adobe Illustrator 22.0.0, SVG Export Plug-In . SVG Version: 6.00 Build 0)  -->
<svg version="1.1" id="Layer_1" xmlns="http://www.w3.org/2000/svg" xmlns:xlink="http://www.w3.org/1999/xlink" x="0px" y="0px"
	 viewBox="0 0 112.2 31.6" style="enable-background:new 0 0 112.2 31.6;" xml:space="preserve">
<style type="text/css">
	.st0{fill:#FFFFFF;}
	.st1{fill:#EC661B;}
</style>
<g id="Layer_2_1_">
</g>
<g id="Layer_2_2_">
</g>
<path class="st0" d="M27.9,13.3v-4h-2.6v22.1h2.6V19.5c0-5.4,3.5-7.3,6.7-7.3h0.2V9.7h-0.2C31.5,9.7,29.2,10.9,27.9,13.3z"/>
<path class="st0" d="M64.6,1.3c-1,0-1.9,0.9-1.9,1.9c0,1.1,0.9,1.9,1.9,1.9s1.9-0.9,1.9-1.9C66.5,2.1,65.6,1.3,64.6,1.3z"/>
<rect x="63.3" y="9.7" class="st0" width="2.6" height="21.6"/>
<path class="st0" d="M76.4,3.2h-2.7v6.5h-4.6v2.6h4.6v13.5c0,2.1,0.5,3.6,1.7,4.6c1,0.8,2.4,1.2,4.3,1.2c0.8,0,1.8-0.1,2.8-0.2h0.2
	V29h-0.3c-2.5,0.2-4.3,0.3-5.2-0.5c-0.5-0.5-0.8-1.3-0.8-2.6V12.3h6.3V9.7h-6.3V3.2z"/>
<rect x="109.6" class="st0" width="2.6" height="31.3"/>
<path class="st1" d="M5,14.2c3-3,7.8-3.3,11.2-0.8l1.8-1.8C13.6,8.2,7.3,8.5,3.2,12.5c-4,4-4.3,10.4-0.8,14.7l1.8-1.8
	C1.7,22,1.9,17.2,5,14.2z"/>
<path class="st0" d="M18.9,28.1c4-4,4.3-10.4,0.8-14.7l-1.8,1.8c2.5,3.3,2.2,8.1-0.8,11.2c-3,3.1-7.8,3.3-11.2,0.8L4.1,29
	C8.7,32.4,15,32.1,18.9,28.1z"/>
<path class="st0" d="M49.2,9.1c-3.6,0-6.8,1.7-8.8,4.4V1.2h-2.6v30.1h2.6V27c2,2.6,5.2,4.4,8.8,4.4c6.1,0,11.1-5,11.1-11.1
	S55.3,9.1,49.2,9.1z M49.2,28.9c-4.8,0-8.6-3.9-8.6-8.6s3.9-8.6,8.6-8.6s8.6,3.9,8.6,8.6S53.9,28.9,49.2,28.9z"/>
<path class="st0" d="M103.5,9.7v3.8c-2-2.7-5.2-4.4-8.8-4.4c-6.1,0-11.1,5-11.1,11.1s5,11.1,11.1,11.1c3.6,0,6.8-1.7,8.8-4.4v4.3
	h2.6V9.7C106.1,9.7,103.5,9.7,103.5,9.7z M94.7,28.9c-4.8,0-8.6-3.9-8.6-8.6s3.9-8.6,8.6-8.6s8.6,3.9,8.6,8.6S99.4,28.9,94.7,28.9z"
	/>
</svg>
