<svg version="1.1" id="Layer_1" xmlns="http://www.w3.org/2000/svg" x="0" y="0" viewBox="0 0 112.2 31.6" xml:space="preserve"><style>.st0{fill:#fff}</style><path class="st0" d="M27.9 13.3v-4h-2.6v22.1h2.6V19.5c0-5.4 3.5-7.3 6.7-7.3h.2V9.7h-.2c-3.1 0-5.4 1.2-6.7 3.6zm36.7-12c-1 0-1.9.9-1.9 1.9 0 1.1.9 1.9 1.9 1.9s1.9-.9 1.9-1.9c0-1.1-.9-1.9-1.9-1.9zm-1.3 8.4h2.6v21.6h-2.6zm13.1-6.5h-2.7v6.5h-4.6v2.6h4.6v13.5c0 2.1.5 3.6 1.7 4.6 1 .8 2.4 1.2 4.3 1.2.8 0 1.8-.1 2.8-.2h.2V29h-.3c-2.5.2-4.3.3-5.2-.5-.5-.5-.8-1.3-.8-2.6V12.3h6.3V9.7h-6.3V3.2zM109.6 0h2.6v31.3h-2.6z"/><path d="M5 14.2c3-3 7.8-3.3 11.2-.8l1.8-1.8c-4.4-3.4-10.7-3.1-14.8.9-4 4-4.3 10.4-.8 14.7l1.8-1.8C1.7 22 1.9 17.2 5 14.2z" fill="#ec661b"/><path class="st0" d="M18.9 28.1c4-4 4.3-10.4.8-14.7l-1.8 1.8c2.5 3.3 2.2 8.1-.8 11.2-3 3.1-7.8 3.3-11.2.8L4.1 29c4.6 3.4 10.9 3.1 14.8-.9zm30.3-19c-3.6 0-6.8 1.7-8.8 4.4V1.2h-2.6v30.1h2.6V27c2 2.6 5.2 4.4 8.8 4.4 6.1 0 11.1-5 11.1-11.1s-5-11.2-11.1-11.2zm0 19.8c-4.8 0-8.6-3.9-8.6-8.6s3.9-8.6 8.6-8.6 8.6 3.9 8.6 8.6-3.9 8.6-8.6 8.6zm54.3-19.2v3.8c-2-2.7-5.2-4.4-8.8-4.4-6.1 0-11.1 5-11.1 11.1s5 11.1 11.1 11.1c3.6 0 6.8-1.7 8.8-4.4v4.3h2.6V9.7h-2.6zm-8.8 19.2c-4.8 0-8.6-3.9-8.6-8.6s3.9-8.6 8.6-8.6 8.6 3.9 8.6 8.6-3.9 8.6-8.6 8.6z"/></svg>